<svg width="18" height="18" viewBox="0 0 18 18" fill="none" xmlns="http://www.w3.org/2000/svg">
<g clip-path="url(#clip0_4446_338)">
<path d="M12 1.5H9C6.87868 1.5 5.81802 1.5 5.15901 2.2097C4.5 2.9194 4.5 4.06166 4.5 6.34616V7.15384C4.5 9.43837 4.5 10.5806 5.15901 11.2903C5.81802 12 6.87868 12 9 12H12C14.1213 12 15.1819 12 15.841 11.2903C16.5 10.5806 16.5 9.43837 16.5 7.15384V6.34616C16.5 4.06166 16.5 2.9194 15.841 2.2097C15.1819 1.5 14.1213 1.5 12 1.5Z" stroke="#667085" stroke-width="2"/>
<path d="M13.5 12.4562C13.4909 14.2153 13.4185 15.1679 12.8422 15.7894C12.1831 16.5 11.1223 16.5 9.00082 16.5H6.00049C3.87894 16.5 2.81816 16.5 2.15908 15.7894C1.5 15.0787 1.5 13.9349 1.5 11.6474V10.8386C1.5 8.55105 1.5 7.40729 2.15908 6.69664C2.64011 6.17798 3.33512 6.03785 4.50032 6" stroke="#667085" stroke-width="2"/>
</g>
<defs>
<clipPath id="clip0_4446_338">
<rect width="18" height="18" fill="white"/>
</clipPath>
</defs>
</svg>
