<svg width="15" height="16" viewBox="0 0 15 16" fill="none" xmlns="http://www.w3.org/2000/svg">
<g id="command">
<path id="Vector" d="M9.375 6.125V9.875H5.625V6.125H9.375Z" stroke="#667085" stroke-width="1.4" stroke-linejoin="round"/>
<path id="Vector_2" d="M9.375 9.875H11.25C12.2856 9.875 13.125 10.7144 13.125 11.75C13.125 12.7856 12.2856 13.625 11.25 13.625C10.2144 13.625 9.375 12.7856 9.375 11.75V9.875Z" stroke="#667085" stroke-width="1.4" stroke-linejoin="round"/>
<path id="Vector_3" d="M5.625 9.87598H3.75C2.71447 9.87598 1.875 10.7154 1.875 11.751C1.875 12.7865 2.71447 13.626 3.75 13.626C4.78553 13.626 5.625 12.7865 5.625 11.751V9.87598Z" stroke="#667085" stroke-width="1.4" stroke-linejoin="round"/>
<path id="Vector_4" d="M9.375 6.125V4.25C9.375 3.21447 10.2144 2.375 11.25 2.375C12.2856 2.375 13.125 3.21447 13.125 4.25C13.125 5.28554 12.2856 6.125 11.25 6.125H9.375Z" stroke="#667085" stroke-width="1.4" stroke-linejoin="round"/>
<path id="Vector_5" d="M5.625 6.125V4.25C5.625 3.21447 4.78553 2.375 3.75 2.375C2.71447 2.375 1.875 3.21447 1.875 4.25C1.875 5.28554 2.71447 6.125 3.75 6.125H5.625Z" stroke="#667085" stroke-width="1.4" stroke-linejoin="round"/>
</g>
</svg>
