<svg width="18" height="18" viewBox="0 0 18 18" fill="none" xmlns="http://www.w3.org/2000/svg">
<path d="M1.875 9C1.875 5.64124 1.875 3.96187 2.91843 2.91843C3.96187 1.875 5.64124 1.875 9 1.875C12.3587 1.875 14.0381 1.875 15.0816 2.91843C16.125 3.96187 16.125 5.64124 16.125 9C16.125 12.3587 16.125 14.0381 15.0816 15.0816C14.0381 16.125 12.3587 16.125 9 16.125C5.64124 16.125 3.96187 16.125 2.91843 15.0816C1.875 14.0381 1.875 12.3587 1.875 9Z" stroke="#667085" stroke-width="1.8"/>
<path d="M9 12V6M9 12C8.47485 12 7.49365 10.5043 7.125 10.125M9 12C9.52515 12 10.5064 10.5043 10.875 10.125" stroke="#667085" stroke-width="1.8" stroke-linecap="round" stroke-linejoin="round"/>
</svg>
