<svg width="729" height="532" viewBox="0 0 729 532" fill="none" xmlns="http://www.w3.org/2000/svg">
<rect width="728.706" height="532" fill="white"/>
<path fill-rule="evenodd" clip-rule="evenodd" d="M359.383 166.352H360.381C374.973 166.351 386.606 166.351 395.727 167.578C405.145 168.844 412.882 171.527 419 177.645C425.119 183.764 427.802 191.501 429.068 200.918C430.294 210.039 430.294 221.672 430.294 236.264V237.262C430.294 251.854 430.294 263.487 429.068 272.608C427.802 282.026 425.119 289.763 419 295.881C412.882 302 405.145 304.683 395.727 305.949C386.606 307.175 374.973 307.175 360.381 307.175H359.383C344.791 307.175 333.158 307.175 324.037 305.949C314.62 304.683 306.882 302 300.764 295.881C294.646 289.763 291.963 282.026 290.696 272.608C289.47 263.487 289.47 251.854 289.47 237.263V236.264C289.47 221.672 289.47 210.039 290.696 200.918C291.963 191.501 294.646 183.764 300.764 177.645C306.882 171.527 314.62 168.844 324.037 167.578C333.158 166.351 344.791 166.351 359.383 166.352ZM325.824 180.87C317.894 181.936 313.459 183.918 310.248 187.129C307.037 190.34 305.055 194.775 303.989 202.706C302.896 210.829 302.882 221.558 302.882 236.763C302.882 251.969 302.896 262.698 303.989 270.821C305.055 278.752 307.037 283.187 310.248 286.398C313.459 289.609 317.894 291.591 325.824 292.657C333.948 293.749 344.677 293.763 359.882 293.763C375.087 293.763 385.817 293.749 393.94 292.657C401.87 291.591 406.306 289.609 409.517 286.398C412.728 283.187 414.71 278.752 415.776 270.821C416.868 262.698 416.882 251.969 416.882 236.763C416.882 221.558 416.868 210.829 415.776 202.706C414.71 194.775 412.728 190.34 409.517 187.129C406.306 183.918 401.87 181.936 393.94 180.87C385.817 179.778 375.087 179.763 359.882 179.763C344.677 179.763 333.948 179.778 325.824 180.87Z" fill="#98A2B3"/>
<path d="M403.471 206.584C403.471 213.991 397.466 219.995 390.059 219.995C382.652 219.995 376.647 213.991 376.647 206.584C376.647 199.177 382.652 193.172 390.059 193.172C397.466 193.172 403.471 199.177 403.471 206.584Z" fill="#98A2B3"/>
<path fill-rule="evenodd" clip-rule="evenodd" d="M308.681 241.815C327.545 241.429 345.984 247.309 360.714 258.47C374.316 268.777 383.958 282.988 388.15 298.936C388.537 300.411 388.235 301.982 387.328 303.207C386.42 304.433 385.006 305.18 383.483 305.24C376.786 305.503 368.99 305.503 359.967 305.503H359.499H359.498C344.808 305.503 333.269 305.503 324.261 304.292C315.029 303.051 307.705 300.455 301.95 294.7C296.948 289.698 294.31 283.563 292.89 275.949C291.498 268.492 291.212 259.248 291.147 247.763C291.133 245.254 292.97 243.118 295.453 242.757C299.829 242.122 304.251 241.807 308.681 241.815ZM380.46 263.31C378.922 261.515 379.524 258.696 381.776 257.973C387.524 256.127 393.41 255.187 399.365 255.209C408.191 255.202 416.901 257.334 425.238 261.448C427.077 262.355 428.18 264.288 428.028 266.333C427.12 278.496 424.77 287.748 417.818 294.7C412.573 299.946 406.023 302.567 397.913 303.929C398.535 301.48 398.54 298.883 397.882 296.379C394.672 284.17 388.68 272.907 380.46 263.31Z" fill="#98A2B3"/>
<path d="M265.582 368.055V336.761H270.097L287.8 360.723V336.761H292.226V368.055H287.8L269.963 343.869V368.055H265.582ZM310.172 368.591C307.937 368.591 305.969 368.099 304.271 367.116C302.572 366.103 301.231 364.717 300.247 362.958C299.293 361.2 298.817 359.173 298.817 356.878C298.817 354.583 299.293 352.557 300.247 350.798C301.201 349.04 302.527 347.669 304.226 346.685C305.925 345.672 307.877 345.165 310.082 345.165C312.288 345.165 314.24 345.672 315.939 346.685C317.638 347.669 318.964 349.04 319.918 350.798C320.871 352.557 321.348 354.583 321.348 356.878C321.348 359.173 320.871 361.2 319.918 362.958C318.964 364.717 317.638 366.103 315.939 367.116C314.27 368.099 312.347 368.591 310.172 368.591ZM310.172 364.702C311.513 364.702 312.705 364.374 313.748 363.718C314.791 363.033 315.596 362.109 316.162 360.946C316.758 359.784 317.057 358.428 317.057 356.878C317.057 355.328 316.758 353.972 316.162 352.81C315.596 351.648 314.777 350.739 313.704 350.083C312.631 349.397 311.424 349.055 310.082 349.055C308.711 349.055 307.504 349.397 306.461 350.083C305.418 350.739 304.598 351.648 304.002 352.81C303.406 353.972 303.108 355.328 303.108 356.878C303.108 358.428 303.406 359.784 304.002 360.946C304.598 362.109 305.433 363.033 306.506 363.718C307.579 364.374 308.801 364.702 310.172 364.702ZM339.732 368.055V336.761H344.113V368.055H339.732ZM351.953 368.055V345.702H355.932L356.111 348.786C356.826 347.594 357.72 346.7 358.793 346.104C359.866 345.478 361.103 345.165 362.504 345.165C364.292 345.165 365.812 345.583 367.064 346.417C368.316 347.222 369.225 348.459 369.791 350.128C370.447 348.518 371.371 347.296 372.563 346.462C373.755 345.597 375.171 345.165 376.81 345.165C379.343 345.165 381.325 346 382.756 347.669C384.186 349.308 384.887 351.841 384.857 355.269V368.055H380.654V356.61C380.654 354.583 380.431 353.048 379.984 352.005C379.567 350.932 379 350.187 378.285 349.77C377.57 349.353 376.735 349.129 375.782 349.099C374.113 349.099 372.816 349.74 371.892 351.022C370.998 352.303 370.551 354.106 370.551 356.431V368.055H366.304V356.61C366.304 354.583 366.095 353.048 365.678 352.005C365.261 350.932 364.68 350.187 363.934 349.77C363.219 349.353 362.385 349.129 361.431 349.099C359.762 349.099 358.465 349.74 357.542 351.022C356.647 352.303 356.2 354.106 356.2 356.431V368.055H351.953ZM404.904 368.055L404.725 364.165V356.386C404.725 354.747 404.531 353.376 404.144 352.274C403.786 351.171 403.22 350.336 402.445 349.77C401.7 349.204 400.702 348.921 399.45 348.921C398.287 348.921 397.274 349.159 396.41 349.636C395.575 350.113 394.875 350.858 394.309 351.871L390.553 350.441C391.09 349.427 391.76 348.533 392.565 347.758C393.37 346.954 394.338 346.328 395.471 345.881C396.604 345.404 397.93 345.165 399.45 345.165C401.566 345.165 403.324 345.583 404.725 346.417C406.126 347.252 407.169 348.459 407.855 350.038C408.57 351.618 408.913 353.57 408.883 355.895L408.838 368.055H404.904ZM398.332 368.591C395.68 368.591 393.608 367.995 392.118 366.803C390.658 365.581 389.927 363.897 389.927 361.751C389.927 359.456 390.687 357.713 392.207 356.521C393.757 355.299 395.903 354.688 398.645 354.688H404.859V358.041H399.807C397.751 358.041 396.306 358.368 395.471 359.024C394.636 359.65 394.219 360.529 394.219 361.662C394.219 362.705 394.607 363.524 395.382 364.121C396.186 364.687 397.289 364.97 398.69 364.97C399.912 364.97 400.97 364.717 401.864 364.21C402.758 363.674 403.458 362.928 403.965 361.975C404.472 361.021 404.725 359.933 404.725 358.711H406.2C406.2 361.751 405.545 364.165 404.233 365.954C402.952 367.712 400.985 368.591 398.332 368.591ZM424.379 377.577C422.889 377.577 421.533 377.428 420.311 377.13C419.089 376.862 418.06 376.549 417.226 376.191C416.391 375.834 415.766 375.521 415.348 375.252L416.958 371.81C417.345 372.048 417.897 372.317 418.612 372.615C419.327 372.943 420.162 373.211 421.115 373.419C422.069 373.658 423.127 373.777 424.29 373.777C425.661 373.777 426.882 373.494 427.955 372.928C429.028 372.391 429.863 371.542 430.459 370.379C431.085 369.217 431.398 367.727 431.398 365.909V345.702H435.645V365.819C435.645 368.383 435.153 370.528 434.17 372.257C433.216 374.015 431.89 375.342 430.191 376.236C428.522 377.13 426.584 377.577 424.379 377.577ZM423.977 367.742C421.95 367.742 420.177 367.28 418.657 366.356C417.166 365.402 415.989 364.091 415.125 362.422C414.29 360.723 413.873 358.771 413.873 356.565C413.873 354.27 414.29 352.274 415.125 350.575C415.989 348.876 417.166 347.55 418.657 346.596C420.177 345.642 421.95 345.165 423.977 345.165C425.824 345.165 427.434 345.642 428.805 346.596C430.206 347.55 431.279 348.891 432.024 350.619C432.799 352.318 433.186 354.315 433.186 356.61C433.186 358.815 432.799 360.768 432.024 362.466C431.279 364.135 430.206 365.432 428.805 366.356C427.434 367.28 425.824 367.742 423.977 367.742ZM425.05 364.165C426.301 364.165 427.389 363.837 428.313 363.182C429.237 362.496 429.967 361.587 430.504 360.455C431.04 359.292 431.308 357.966 431.308 356.476C431.308 354.986 431.04 353.674 430.504 352.542C429.967 351.409 429.222 350.53 428.268 349.904C427.344 349.248 426.257 348.921 425.005 348.921C423.693 348.921 422.531 349.248 421.518 349.904C420.534 350.53 419.759 351.409 419.193 352.542C418.627 353.674 418.344 354.986 418.344 356.476C418.344 357.966 418.627 359.292 419.193 360.455C419.789 361.587 420.579 362.496 421.562 363.182C422.576 363.837 423.738 364.165 425.05 364.165ZM452.312 368.591C450.136 368.591 448.214 368.099 446.545 367.116C444.876 366.103 443.565 364.717 442.611 362.958C441.657 361.2 441.18 359.173 441.18 356.878C441.18 354.583 441.657 352.557 442.611 350.798C443.565 349.04 444.876 347.669 446.545 346.685C448.244 345.672 450.181 345.165 452.357 345.165C454.413 345.165 456.216 345.687 457.766 346.73C459.316 347.743 460.523 349.204 461.387 351.111C462.281 352.989 462.729 355.209 462.729 357.772H444.667L445.472 357.102C445.472 358.681 445.785 360.052 446.411 361.215C447.037 362.377 447.886 363.271 448.959 363.897C450.032 364.493 451.254 364.791 452.625 364.791C454.115 364.791 455.352 364.448 456.336 363.763C457.349 363.048 458.139 362.154 458.705 361.081L462.371 362.779C461.775 363.942 461 364.97 460.046 365.864C459.092 366.728 457.96 367.399 456.649 367.876C455.367 368.353 453.921 368.591 452.312 368.591ZM445.74 355.09L444.891 354.419H459.018L458.213 355.09C458.213 353.779 457.945 352.661 457.409 351.737C456.872 350.783 456.157 350.068 455.263 349.591C454.369 349.084 453.37 348.831 452.267 348.831C451.194 348.831 450.151 349.084 449.138 349.591C448.154 350.068 447.335 350.768 446.679 351.692C446.053 352.616 445.74 353.749 445.74 355.09Z" fill="#98A2B3"/>
</svg>
