<svg width="18" height="18" viewBox="0 0 18 18" fill="none" xmlns="http://www.w3.org/2000/svg">
<path d="M1.875 9C1.875 5.64124 1.875 3.96187 2.91843 2.91843C3.96187 1.875 5.64124 1.875 9 1.875C12.3587 1.875 14.0381 1.875 15.0816 2.91843C16.125 3.96187 16.125 5.64124 16.125 9C16.125 12.3587 16.125 14.0381 15.0816 15.0816C14.0381 16.125 12.3587 16.125 9 16.125C5.64124 16.125 3.96187 16.125 2.91843 15.0816C1.875 14.0381 1.875 12.3587 1.875 9Z" stroke="#667085" stroke-width="1.8"/>
<path d="M7.5 6.75C7.5 5.92157 8.17155 5.25 9 5.25C9.82845 5.25 10.5 5.92157 10.5 6.75C10.5 7.04861 10.4128 7.32685 10.2623 7.5606C9.81405 8.25728 9 8.92155 9 9.75V10.125" stroke="#667085" stroke-width="1.8" stroke-linecap="round"/>
<path d="M8.99414 12.75H9.00089" stroke="#667085" stroke-width="1.8" stroke-linecap="round" stroke-linejoin="round"/>
</svg>
