<svg width="44" height="44" viewBox="0 0 44 44" fill="none" xmlns="http://www.w3.org/2000/svg">
<g filter="url(#filter0_d_1005_8687)">
<path d="M2 21C2 13.5231 2 9.78461 3.6077 7C4.66092 5.17577 6.17577 3.66092 8 2.6077C10.7846 1 14.5231 1 22 1C29.4769 1 33.2154 1 36 2.6077C37.8242 3.66092 39.3391 5.17577 40.3923 7C42 9.78461 42 13.5231 42 21C42 28.4769 42 32.2154 40.3923 35C39.3391 36.8242 37.8242 38.3391 36 39.3923C33.2154 41 29.4769 41 22 41C14.5231 41 10.7846 41 8 39.3923C6.17577 38.3391 4.66092 36.8242 3.6077 35C2 32.2154 2 28.4769 2 21Z" fill="white"/>
<path d="M2.5 21C2.5 17.2523 2.50048 14.475 2.69892 12.2855C2.89674 10.1029 3.28812 8.55352 4.04071 7.25C5.05004 5.50178 6.50178 4.05004 8.25 3.04071C9.55352 2.28812 11.1029 1.89674 13.2855 1.69892C15.475 1.50048 18.2523 1.5 22 1.5C25.7477 1.5 28.525 1.50048 30.7145 1.69892C32.8971 1.89674 34.4465 2.28812 35.75 3.04071C37.4982 4.05004 38.95 5.50178 39.9593 7.25C40.7119 8.55352 41.1033 10.1029 41.3011 12.2855C41.4995 14.475 41.5 17.2523 41.5 21C41.5 24.7477 41.4995 27.525 41.3011 29.7145C41.1033 31.8971 40.7119 33.4465 39.9593 34.75C38.95 36.4982 37.4982 37.95 35.75 38.9593C34.4465 39.7119 32.8971 40.1033 30.7145 40.3011C28.525 40.4995 25.7477 40.5 22 40.5C18.2523 40.5 15.475 40.4995 13.2855 40.3011C11.1029 40.1033 9.55352 39.7119 8.25 38.9593C6.50178 37.95 5.05004 36.4982 4.04071 34.75C3.28812 33.4465 2.89674 31.8971 2.69892 29.7145C2.50048 27.525 2.5 24.7477 2.5 21Z" stroke="#D0D5DD"/>
<path d="M23.7276 12.4442L25.4874 15.9929C25.7274 16.4869 26.3673 16.9607 26.9073 17.0514L30.0969 17.5857C32.1367 17.9285 32.6167 19.4206 31.1468 20.8925L28.6671 23.3927C28.2471 23.8161 28.0172 24.6327 28.1471 25.2175L28.8571 28.3125C29.417 30.7623 28.1271 31.71 25.9774 30.4296L22.9877 28.6452C22.4478 28.3226 21.5579 28.3226 21.0079 28.6452L18.0183 30.4296C15.8785 31.71 14.5786 30.7522 15.1386 28.3125L15.8485 25.2175C15.9785 24.6327 15.7485 23.8161 15.3286 23.3927L12.8488 20.8925C11.389 19.4206 11.8589 17.9285 13.8987 17.5857L17.0884 17.0514C17.6183 16.9607 18.2582 16.4869 18.4982 15.9929L20.258 12.4442C21.2179 10.5186 22.7777 10.5186 23.7276 12.4442Z" stroke="#667085" stroke-width="1.8" stroke-linecap="round" stroke-linejoin="round"/>
</g>
<defs>
<filter id="filter0_d_1005_8687" x="0" y="0" width="44" height="44" filterUnits="userSpaceOnUse" color-interpolation-filters="sRGB">
<feFlood flood-opacity="0" result="BackgroundImageFix"/>
<feColorMatrix in="SourceAlpha" type="matrix" values="0 0 0 0 0 0 0 0 0 0 0 0 0 0 0 0 0 0 127 0" result="hardAlpha"/>
<feOffset dy="1"/>
<feGaussianBlur stdDeviation="1"/>
<feComposite in2="hardAlpha" operator="out"/>
<feColorMatrix type="matrix" values="0 0 0 0 0.0627451 0 0 0 0 0.0941176 0 0 0 0 0.156863 0 0 0 0.05 0"/>
<feBlend mode="normal" in2="BackgroundImageFix" result="effect1_dropShadow_1005_8687"/>
<feBlend mode="normal" in="SourceGraphic" in2="effect1_dropShadow_1005_8687" result="shape"/>
</filter>
</defs>
</svg>
