<svg width="24" height="24" viewBox="0 0 24 24" fill="none" xmlns="http://www.w3.org/2000/svg">
<path d="M0 6.77548C0 3.0335 3.03348 2.55797e-05 6.77546 2.55797e-05H11.953C11.979 2.55797e-05 11.953 -2.21213e-05 12 1.27555e-05V5.22456C12 8.96654 8.96653 12 5.22454 12H0V6.77548Z" fill="#5730F7"/>
<path d="M0 17.2246C0 20.9665 3.03348 24 6.77546 24H11.953C11.979 24 11.953 24 12 24V18.7755C12 15.0335 8.96653 12 5.22454 12H0V17.2246Z" fill="#A087FE"/>
<path d="M24 6.77548C24 3.0335 20.9665 2.55797e-05 17.2245 2.55797e-05H12.047C12.021 2.55797e-05 12.047 2.5579e-05 12 1.27555e-05V5.22456C12 8.96654 15.0335 12 18.7755 12H24V6.77548Z" fill="#A087FE"/>
<path d="M24 17.2246C24 20.9665 20.9665 24 17.2245 24H12.047C12.021 24 12.047 24 12 24V18.7755C12 15.0335 15.0335 12 18.7755 12H24V17.2246Z" fill="#5730F7"/>
</svg>
