<svg width="20" height="21" viewBox="0 0 20 21" fill="none" xmlns="http://www.w3.org/2000/svg">
<g id="pencil-edit-02">
<path id="Vector" d="M13.5121 4.65199L14.6802 3.48386C15.3253 2.83871 16.3713 2.83871 17.0165 3.48386C17.6616 4.129 17.6616 5.17498 17.0165 5.82012L15.8483 6.98826M13.5121 4.65199L9.15049 9.01358C8.27943 9.88467 7.84388 10.3202 7.5473 10.8509C7.25072 11.3817 6.95233 12.6349 6.66699 13.8333C7.8654 13.548 9.11866 13.2496 9.64941 12.953C10.1802 12.6564 10.6157 12.2209 11.4867 11.3498L15.8483 6.98826M13.5121 4.65199L15.8483 6.98826" stroke="#667085" stroke-width="1.6" stroke-linecap="round" stroke-linejoin="round"/>
<path id="Vector_2" d="M17.5 10.5C17.5 14.0355 17.5 15.8033 16.4017 16.9017C15.3033 18 13.5355 18 10 18C6.46447 18 4.6967 18 3.59835 16.9017C2.5 15.8033 2.5 14.0355 2.5 10.5C2.5 6.96447 2.5 5.1967 3.59835 4.09835C4.6967 3 6.46447 3 10 3" stroke="#667085" stroke-width="1.6" stroke-linecap="round"/>
</g>
</svg>
