<svg width="44" height="44" viewBox="0 0 44 44" fill="none" xmlns="http://www.w3.org/2000/svg">
<g filter="url(#filter0_d_1298_23540)">
<path d="M2 21C2 13.5231 2 9.78461 3.6077 7C4.66092 5.17577 6.17577 3.66092 8 2.6077C10.7846 1 14.5231 1 22 1C29.4769 1 33.2154 1 36 2.6077C37.8242 3.66092 39.3391 5.17577 40.3923 7C42 9.78461 42 13.5231 42 21C42 28.4769 42 32.2154 40.3923 35C39.3391 36.8242 37.8242 38.3391 36 39.3923C33.2154 41 29.4769 41 22 41C14.5231 41 10.7846 41 8 39.3923C6.17577 38.3391 4.66092 36.8242 3.6077 35C2 32.2154 2 28.4769 2 21Z" fill="white"/>
<path d="M2.5 21C2.5 17.2523 2.50048 14.475 2.69892 12.2855C2.89674 10.1029 3.28812 8.55352 4.04071 7.25C5.05004 5.50178 6.50178 4.05004 8.25 3.04071C9.55352 2.28812 11.1029 1.89674 13.2855 1.69892C15.475 1.50048 18.2523 1.5 22 1.5C25.7477 1.5 28.525 1.50048 30.7145 1.69892C32.8971 1.89674 34.4465 2.28812 35.75 3.04071C37.4982 4.05004 38.95 5.50178 39.9593 7.25C40.7119 8.55352 41.1033 10.1029 41.3011 12.2855C41.4995 14.475 41.5 17.2523 41.5 21C41.5 24.7477 41.4995 27.525 41.3011 29.7145C41.1033 31.8971 40.7119 33.4465 39.9593 34.75C38.95 36.4982 37.4982 37.95 35.75 38.9593C34.4465 39.7119 32.8971 40.1033 30.7145 40.3011C28.525 40.4995 25.7477 40.5 22 40.5C18.2523 40.5 15.475 40.4995 13.2855 40.3011C11.1029 40.1033 9.55352 39.7119 8.25 38.9593C6.50178 37.95 5.05004 36.4982 4.04071 34.75C3.28812 33.4465 2.89674 31.8971 2.69892 29.7145C2.50048 27.525 2.5 24.7477 2.5 21Z" stroke="#D0D5DD"/>
<path d="M30.9977 21.5032C30.9977 21.5032 31 21.0338 31 20.5029C31 16.0232 31 13.7833 29.6088 12.3917C28.2175 11 25.9783 11 21.5 11C17.0217 11 14.7825 11 13.3912 12.3917C12 13.7833 12 16.0232 12 20.5029C12 24.9827 12 27.2225 13.3912 28.6142C14.5578 29.7812 16.3207 29.9696 19.5 30" stroke="#667085" stroke-width="1.8" stroke-linecap="round"/>
<path d="M12 16H31" stroke="#667085" stroke-width="1.8" stroke-linejoin="round"/>
<path d="M16 25H17M20 21H25M16 21H17" stroke="#667085" stroke-width="1.8" stroke-linecap="round" stroke-linejoin="round"/>
<path d="M27 27.5H27.0098" stroke="#667085" stroke-width="1.8" stroke-linecap="round" stroke-linejoin="round"/>
<path d="M31.772 27.0225C31.924 27.2357 32 27.3422 32 27.5C32 27.6578 31.924 27.7643 31.772 27.9775C31.089 28.9353 29.3446 31 27 31C24.6554 31 22.911 28.9353 22.228 27.9775C22.076 27.7643 22 27.6578 22 27.5C22 27.3422 22.076 27.2357 22.228 27.0225C22.911 26.0647 24.6554 24 27 24C29.3446 24 31.089 26.0647 31.772 27.0225Z" stroke="#667085" stroke-width="1.8"/>
</g>
<defs>
<filter id="filter0_d_1298_23540" x="0" y="0" width="44" height="44" filterUnits="userSpaceOnUse" color-interpolation-filters="sRGB">
<feFlood flood-opacity="0" result="BackgroundImageFix"/>
<feColorMatrix in="SourceAlpha" type="matrix" values="0 0 0 0 0 0 0 0 0 0 0 0 0 0 0 0 0 0 127 0" result="hardAlpha"/>
<feOffset dy="1"/>
<feGaussianBlur stdDeviation="1"/>
<feComposite in2="hardAlpha" operator="out"/>
<feColorMatrix type="matrix" values="0 0 0 0 0.0627451 0 0 0 0 0.0941176 0 0 0 0 0.156863 0 0 0 0.05 0"/>
<feBlend mode="normal" in2="BackgroundImageFix" result="effect1_dropShadow_1298_23540"/>
<feBlend mode="normal" in="SourceGraphic" in2="effect1_dropShadow_1298_23540" result="shape"/>
</filter>
</defs>
</svg>
