<svg width="18" height="18" viewBox="0 0 18 18" fill="none" xmlns="http://www.w3.org/2000/svg">
<g id="rectangular">
<path id="Vector" d="M1.5 9C1.5 6.8998 1.5 5.84971 1.90873 5.04754C2.26825 4.34193 2.84193 3.76825 3.54754 3.40873C4.34971 3 5.3998 3 7.5 3H10.5C12.6002 3 13.6503 3 14.4525 3.40873C15.1581 3.76825 15.7318 4.34193 16.0912 5.04754C16.5 5.84971 16.5 6.8998 16.5 9C16.5 11.1002 16.5 12.1503 16.0912 12.9525C15.7318 13.6581 15.1581 14.2318 14.4525 14.5912C13.6503 15 12.6002 15 10.5 15H7.5C5.3998 15 4.34971 15 3.54754 14.5912C2.84193 14.2318 2.26825 13.6581 1.90873 12.9525C1.5 12.1503 1.5 11.1002 1.5 9Z" stroke="#667085" stroke-width="1.5" stroke-linejoin="round"/>
</g>
</svg>
