<svg width="18" height="18" viewBox="0 0 18 18" fill="none" xmlns="http://www.w3.org/2000/svg">
<path d="M11.625 9C11.625 10.4497 10.4497 11.625 9 11.625C7.55025 11.625 6.375 10.4497 6.375 9C6.375 7.55025 7.55025 6.375 9 6.375C10.4497 6.375 11.625 7.55025 11.625 9Z" stroke="#667085" stroke-width="1.8"/>
<path d="M15.7582 10.5726C16.1497 10.4671 16.3454 10.4143 16.4227 10.3133C16.5 10.2125 16.5 10.0501 16.5 9.72541V8.27513C16.5 7.95046 16.5 7.78808 16.4227 7.68721C16.3454 7.58626 16.1497 7.53346 15.7582 7.42792C14.2954 7.03343 13.3799 5.50412 13.7575 4.05089C13.8613 3.65123 13.9132 3.4514 13.8636 3.3342C13.814 3.217 13.6718 3.13624 13.3873 2.9747L12.0938 2.24028C11.8146 2.08178 11.675 2.00252 11.5498 2.0194C11.4245 2.03627 11.2832 2.17728 11.0004 2.45928C9.906 3.55109 8.0952 3.55105 7.00076 2.45921C6.71807 2.17721 6.57673 2.03621 6.45145 2.01932C6.32617 2.00245 6.18658 2.0817 5.9074 2.24021L4.61388 2.97464C4.3294 3.13616 4.18715 3.21692 4.13758 3.3341C4.08801 3.45128 4.1399 3.65114 4.24369 4.05083C4.62103 5.50411 3.70479 7.03346 2.24177 7.42793C1.85034 7.53346 1.65463 7.58626 1.57731 7.68713C1.5 7.78808 1.5 7.95046 1.5 8.27513V9.72541C1.5 10.0501 1.5 10.2125 1.57731 10.3133C1.65461 10.4143 1.85033 10.4671 2.24177 10.5726C3.70455 10.9671 4.62006 12.4964 4.24254 13.9496C4.13872 14.3493 4.0868 14.5491 4.13637 14.6663C4.18595 14.7836 4.32819 14.8643 4.61269 15.0258L5.90621 15.7603C6.18541 15.9188 6.325 15.998 6.4503 15.9812C6.57559 15.9643 6.71691 15.8232 6.99953 15.5412C8.09453 14.4485 9.9066 14.4485 11.0017 15.5411C11.2843 15.8232 11.4256 15.9642 11.5509 15.9811C11.6762 15.998 11.8158 15.9187 12.095 15.7602L13.3885 15.0257C13.673 14.8643 13.8153 14.7835 13.8648 14.6663C13.9144 14.549 13.8625 14.3492 13.7586 13.9496C13.3809 12.4964 14.2957 10.9672 15.7582 10.5726Z" stroke="#667085" stroke-width="1.8" stroke-linecap="round"/>
</svg>
