<svg width="17" height="18" viewBox="0 0 17 18" fill="none" xmlns="http://www.w3.org/2000/svg">
<path id="Vector" d="M9.7957 2.58313L11.1155 5.24466C11.2955 5.61515 11.7755 5.97052 12.1805 6.03857L14.5727 6.43931C16.1025 6.6964 16.4625 7.81545 15.3601 8.91937L13.5003 10.7945C13.1853 11.1121 13.0129 11.7245 13.1103 12.1631L13.6428 14.4844C14.0627 16.3217 13.0953 17.0325 11.483 16.0722L9.24077 14.7339C8.83585 14.492 8.16842 14.492 7.75592 14.7339L5.5137 16.0722C3.90887 17.0325 2.93399 16.3141 3.35394 14.4844L3.88638 12.1631C3.98387 11.7245 3.81139 11.1121 3.49642 10.7945L1.63663 8.91937C0.541749 7.81545 0.894212 6.6964 2.42404 6.43931L4.81628 6.03857C5.21373 5.97052 5.69368 5.61515 5.87366 5.24466L7.1935 2.58313C7.91342 1.13896 9.08327 1.13896 9.7957 2.58313Z" fill="#FFCA28" stroke="#FFCA28" stroke-width="2" stroke-linecap="round" stroke-linejoin="round"/>
</svg>
