<svg width="16" height="16" viewBox="0 0 16 16" fill="none" xmlns="http://www.w3.org/2000/svg">
<path d="M1.66675 7.99935C1.66675 5.01379 1.66675 3.52101 2.59424 2.59351C3.52174 1.66602 5.01452 1.66602 8.00008 1.66602C10.9856 1.66602 12.4784 1.66602 13.4059 2.59351C14.3334 3.52101 14.3334 5.01379 14.3334 7.99935C14.3334 10.9849 14.3334 12.4777 13.4059 13.4052C12.4784 14.3327 10.9856 14.3327 8.00008 14.3327C5.01452 14.3327 3.52174 14.3327 2.59424 13.4052C1.66675 12.4777 1.66675 10.9849 1.66675 7.99935Z" stroke="#667085" stroke-width="1.2"/>
<path d="M1.66675 6H14.3334" stroke="#667085" stroke-width="1.2" stroke-linejoin="round"/>
<path d="M4.6665 4H4.67249" stroke="#667085" stroke-width="1.2" stroke-linecap="round" stroke-linejoin="round"/>
<path d="M7.33325 4H7.33925" stroke="#667085" stroke-width="1.2" stroke-linecap="round" stroke-linejoin="round"/>
</svg>
