<svg width="32" height="33" viewBox="0 0 32 33" fill="none" xmlns="http://www.w3.org/2000/svg">
<path d="M19.1024 11.3727L21.6574 8.81766C22.4374 8.03766 22.4374 6.77016 21.6574 5.99016L17.4149 1.74516C16.6349 0.965156 15.3674 0.965156 14.5874 1.74516L10.3424 5.98766C9.56245 6.76766 9.56245 8.03516 10.3424 8.81516L12.8974 11.3702C13.1899 11.6627 13.6274 11.7427 14.0074 11.5777C14.6174 11.3102 15.2899 11.1602 15.9999 11.1602C16.7099 11.1602 17.3824 11.3102 17.9924 11.5777C18.3699 11.7452 18.8099 11.6627 19.1024 11.3727Z" fill="url(#paint0_linear_298_660)"/>
<path d="M30.415 14.7452L26.1725 10.5027C25.3925 9.72272 24.125 9.72272 23.345 10.5027L20.7875 13.0577C20.495 13.3502 20.415 13.7877 20.58 14.1677C20.85 14.7777 21 15.4502 21 16.1602C21 16.8702 20.85 17.5427 20.5825 18.1527C20.4175 18.5302 20.4975 18.9702 20.79 19.2627L23.345 21.8177C24.125 22.5977 25.3925 22.5977 26.1725 21.8177L30.415 17.5752C31.195 16.7927 31.195 15.5277 30.415 14.7452Z" fill="url(#paint1_linear_298_660)"/>
<path d="M11.2125 13.0577L8.6575 10.5027C7.8775 9.72272 6.61 9.72272 5.83 10.5027L1.585 14.7452C0.805 15.5252 0.805 16.7927 1.585 17.5727L5.8275 21.8152C6.6075 22.5952 7.875 22.5952 8.655 21.8152L11.21 19.2602C11.5025 18.9677 11.5825 18.5302 11.4175 18.1502C11.15 17.5427 11 16.8702 11 16.1602C11 15.4502 11.15 14.7777 11.4175 14.1677C11.585 13.7902 11.5025 13.3502 11.2125 13.0577Z" fill="url(#paint2_linear_298_660)"/>
<path d="M12.8974 20.9476L10.3424 23.5026C9.56245 24.2826 9.56245 25.5501 10.3424 26.3301L14.5849 30.5726C15.3649 31.3526 16.6324 31.3526 17.4124 30.5726L21.6549 26.3301C22.4349 25.5501 22.4349 24.2826 21.6549 23.5026L19.1024 20.9476C18.8099 20.6551 18.3724 20.5751 17.9924 20.7401C17.3824 21.0101 16.7099 21.1601 15.9999 21.1601C15.2899 21.1601 14.6174 21.0101 14.0074 20.7426C13.6299 20.5751 13.1899 20.6576 12.8974 20.9476Z" fill="url(#paint3_linear_298_660)"/>
<path d="M16 20.1602C18.2091 20.1602 20 18.3693 20 16.1602C20 13.951 18.2091 12.1602 16 12.1602C13.7909 12.1602 12 13.951 12 16.1602C12 18.3693 13.7909 20.1602 16 20.1602Z" fill="url(#paint4_linear_298_660)"/>
<path opacity="0.2" d="M15.9999 1.91016C16.3349 1.91016 16.6474 2.04016 16.8849 2.27516L21.1274 6.51766C21.3624 6.75266 21.4924 7.06766 21.4924 7.40266C21.4924 7.73766 21.3624 8.05016 21.1274 8.28766L18.5724 10.8427C18.5249 10.8902 18.4649 10.9152 18.3974 10.9152C18.3624 10.9152 18.3274 10.9077 18.2949 10.8927C17.5674 10.5727 16.7949 10.4102 15.9999 10.4102C15.2049 10.4102 14.4324 10.5727 13.7049 10.8927C13.6724 10.9077 13.6374 10.9152 13.6024 10.9152C13.5374 10.9152 13.4749 10.8902 13.4274 10.8427L10.8724 8.28766C10.3849 7.80016 10.3849 7.00766 10.8724 6.52016L15.1149 2.27516C15.3524 2.04016 15.6649 1.91016 15.9999 1.91016ZM15.9999 1.16016C15.4874 1.16016 14.9774 1.35516 14.5849 1.74516L10.3424 5.98766C9.56245 6.76766 9.56245 8.03516 10.3424 8.81516L12.8974 11.3702C13.0874 11.5602 13.3424 11.6627 13.6024 11.6627C13.7399 11.6627 13.8774 11.6352 14.0074 11.5777C14.6174 11.3102 15.2899 11.1602 15.9999 11.1602C16.7099 11.1602 17.3824 11.3102 17.9924 11.5777C18.1224 11.6352 18.2599 11.6627 18.3974 11.6627C18.6574 11.6627 18.9124 11.5627 19.1024 11.3702L21.6574 8.81516C22.4374 8.03516 22.4374 6.76766 21.6574 5.98766L17.4149 1.74516C17.0224 1.35516 16.5124 1.16016 15.9999 1.16016Z" fill="#424242"/>
<path opacity="0.2" d="M24.7575 10.6677C25.0925 10.6677 25.405 10.7977 25.6425 11.0327L29.885 15.2752C30.12 15.5102 30.25 15.8252 30.25 16.1602C30.25 16.4952 30.12 16.8077 29.885 17.0452L25.6425 21.2877C25.4075 21.5227 25.0925 21.6527 24.7575 21.6527C24.4225 21.6527 24.11 21.5227 23.8725 21.2877L21.3175 18.7327C21.245 18.6602 21.225 18.5502 21.2675 18.4552C21.5875 17.7277 21.75 16.9552 21.75 16.1602C21.75 15.3652 21.5875 14.5927 21.2675 13.8652C21.225 13.7702 21.245 13.6602 21.3175 13.5877L23.8725 11.0327C24.11 10.7977 24.4225 10.6677 24.7575 10.6677ZM24.7575 9.91772C24.245 9.91772 23.735 10.1127 23.3425 10.5027L20.7875 13.0577C20.495 13.3502 20.415 13.7877 20.58 14.1677C20.85 14.7777 21 15.4502 21 16.1602C21 16.8702 20.85 17.5427 20.5825 18.1527C20.4175 18.5302 20.4975 18.9702 20.79 19.2627L23.345 21.8177C23.735 22.2077 24.2475 22.4027 24.76 22.4027C25.2725 22.4027 25.7825 22.2077 26.175 21.8177L30.4175 17.5752C31.1975 16.7952 31.1975 15.5277 30.4175 14.7477L26.175 10.5052C25.78 10.1127 25.27 9.91772 24.7575 9.91772Z" fill="#424242"/>
<path opacity="0.2" d="M7.2425 10.6677C7.5775 10.6677 7.89 10.7977 8.1275 11.0327L10.6825 13.5877C10.755 13.6602 10.775 13.7702 10.7325 13.8652C10.4125 14.5927 10.25 15.3652 10.25 16.1602C10.25 16.9552 10.4125 17.7277 10.7325 18.4552C10.775 18.5502 10.755 18.6602 10.6825 18.7327L8.1275 21.2877C7.8925 21.5227 7.5775 21.6527 7.2425 21.6527C6.9075 21.6527 6.595 21.5227 6.3575 21.2877L2.115 17.0452C1.88 16.8077 1.75 16.4952 1.75 16.1602C1.75 15.8252 1.88 15.5127 2.115 15.2752L6.3575 11.0327C6.595 10.7977 6.91 10.6677 7.2425 10.6677ZM7.2425 9.91772C6.73 9.91772 6.22 10.1127 5.8275 10.5027L1.585 14.7452C0.805 15.5252 0.805 16.7927 1.585 17.5727L5.8275 21.8152C6.2175 22.2052 6.73 22.4002 7.2425 22.4002C7.755 22.4002 8.265 22.2052 8.6575 21.8152L11.2125 19.2602C11.505 18.9677 11.585 18.5302 11.42 18.1502C11.15 17.5427 11 16.8702 11 16.1602C11 15.4502 11.15 14.7777 11.4175 14.1677C11.5825 13.7902 11.5025 13.3502 11.21 13.0577L8.6575 10.5027C8.2675 10.1127 7.755 9.91772 7.2425 9.91772Z" fill="#424242"/>
<path opacity="0.2" d="M18.3974 21.4077C18.4624 21.4077 18.5249 21.4327 18.5724 21.4802L21.1274 24.0352C21.3624 24.2702 21.4924 24.5852 21.4924 24.9202C21.4924 25.2552 21.3624 25.5677 21.1274 25.8052L16.8849 30.0477C16.6499 30.2827 16.3349 30.4127 15.9999 30.4127C15.6649 30.4127 15.3524 30.2827 15.1149 30.0477L10.8724 25.8052C10.6374 25.5702 10.5074 25.2552 10.5074 24.9202C10.5074 24.5852 10.6374 24.2727 10.8724 24.0352L13.4274 21.4802C13.4749 21.4327 13.5349 21.4077 13.6024 21.4077C13.6374 21.4077 13.6724 21.4152 13.7049 21.4302C14.4324 21.7502 15.2049 21.9127 15.9999 21.9127C16.7949 21.9127 17.5674 21.7502 18.2949 21.4302C18.3274 21.4152 18.3624 21.4077 18.3974 21.4077ZM18.3974 20.6577C18.2599 20.6577 18.1224 20.6852 17.9924 20.7427C17.3824 21.0102 16.7099 21.1602 15.9999 21.1602C15.2899 21.1602 14.6174 21.0102 14.0074 20.7427C13.8774 20.6852 13.7399 20.6577 13.6024 20.6577C13.3424 20.6577 13.0874 20.7577 12.8974 20.9502L10.3424 23.5027C9.56245 24.2827 9.56245 25.5502 10.3424 26.3302L14.5849 30.5727C14.9749 30.9627 15.4874 31.1577 15.9999 31.1577C16.5124 31.1577 17.0224 30.9627 17.4149 30.5727L21.6574 26.3302C22.4374 25.5502 22.4374 24.2827 21.6574 23.5027L19.1024 20.9477C18.9099 20.7577 18.6574 20.6577 18.3974 20.6577Z" fill="#424242"/>
<path opacity="0.2" d="M16 12.9102C17.7925 12.9102 19.25 14.3677 19.25 16.1602C19.25 17.9527 17.7925 19.4102 16 19.4102C14.2075 19.4102 12.75 17.9527 12.75 16.1602C12.75 14.3677 14.2075 12.9102 16 12.9102ZM16 12.1602C13.79 12.1602 12 13.9502 12 16.1602C12 18.3702 13.79 20.1602 16 20.1602C18.21 20.1602 20 18.3702 20 16.1602C20 13.9502 18.21 12.1602 16 12.1602Z" fill="#424242"/>
<defs>
<linearGradient id="paint0_linear_298_660" x1="15.9999" y1="1.24348" x2="15.9999" y2="31.2677" gradientUnits="userSpaceOnUse">
<stop stop-color="#80D8FF"/>
<stop offset="0.5888" stop-color="#36C1FF"/>
<stop offset="0.9954" stop-color="#00B0FF"/>
</linearGradient>
<linearGradient id="paint1_linear_298_660" x1="25.7475" y1="1.24355" x2="25.7475" y2="31.2677" gradientUnits="userSpaceOnUse">
<stop stop-color="#80D8FF"/>
<stop offset="0.5888" stop-color="#36C1FF"/>
<stop offset="0.9954" stop-color="#00B0FF"/>
</linearGradient>
<linearGradient id="paint2_linear_298_660" x1="6.25175" y1="1.24355" x2="6.25175" y2="31.2677" gradientUnits="userSpaceOnUse">
<stop stop-color="#80D8FF"/>
<stop offset="0.5888" stop-color="#36C1FF"/>
<stop offset="0.9954" stop-color="#00B0FF"/>
</linearGradient>
<linearGradient id="paint3_linear_298_660" x1="15.9999" y1="1.24347" x2="15.9999" y2="31.2676" gradientUnits="userSpaceOnUse">
<stop stop-color="#80D8FF"/>
<stop offset="0.5888" stop-color="#36C1FF"/>
<stop offset="0.9954" stop-color="#00B0FF"/>
</linearGradient>
<linearGradient id="paint4_linear_298_660" x1="16" y1="12.3684" x2="16" y2="20.6212" gradientUnits="userSpaceOnUse">
<stop stop-color="#42A5F5"/>
<stop offset="1" stop-color="#1976D2"/>
</linearGradient>
</defs>
</svg>
